<svg xmlns="http://www.w3.org/2000/svg" xmlns:xlink="http://www.w3.org/1999/xlink" width="189" height="38" viewBox="0 0 189 38">
  <defs>
    <clipPath id="clip-path">
      <rect id="사각형_42733" data-name="사각형 42733" width="189" height="38" fill="#194893"/>
    </clipPath>
  </defs>
  <g id="LOGO2" transform="translate(-240 -65)">
    <g id="그룹_7470" data-name="그룹 7470" transform="translate(240 65)">
      <path id="패스_8" data-name="패스 8" d="M0,0V37.284H22.77V31.113H7.29V0Z" transform="translate(0 0)" fill="#194893"/>
      <rect id="사각형_42731" data-name="사각형 42731" width="7.29" height="37.284" transform="translate(100.865 0)" fill="#194893"/>
      <g id="그룹_7469" data-name="그룹 7469" transform="translate(0 0)">
        <g id="그룹_7468" data-name="그룹 7468" transform="translate(0 0)" clip-path="url(#clip-path)">
          <path id="패스_9" data-name="패스 9" d="M460.248,31.6q7.193,0,7.306-6.806V0h-8.541V24.8q-.072,4.328-3.01,5.9a9.045,9.045,0,0,0,4.245.906" transform="translate(-278.711 0)" fill="#194893"/>
          <path id="패스_10" data-name="패스 10" d="M417.042,34.314a11.613,11.613,0,0,1-4.323-8.768c-.024-.307-.039-.624-.039-.956V0h-8.529V24.821a11.784,11.784,0,0,0,4.349,9.493q4.265,3.454,11.514,3.454a25.106,25.106,0,0,0,4.271-.343,15.444,15.444,0,0,1-7.244-3.111" transform="translate(-247.019 0)" fill="#194893"/>
          <path id="패스_11" data-name="패스 11" d="M97.407,10.418H90.313l4.331,12.945h-9.28L89.791,9.984,93,0H86.434L72.616,37.257h8.133L83.3,29.58h13.41l2.575,7.677h8.133Z" transform="translate(-44.383 0)" fill="#194893"/>
          <path id="패스_12" data-name="패스 12" d="M190.826,23.852V50.293h7.648V21.379Z" transform="translate(-116.634 -13.036)" fill="#194893"/>
          <path id="패스_13" data-name="패스 13" d="M161.973,0V6.218h11.218v.009h7.648V6.218H192.21V0Z" transform="translate(-98.999 0)" fill="#194893"/>
          <rect id="사각형_42732" data-name="사각형 42732" width="7.623" height="23.163" transform="translate(140.576)" fill="#194893"/>
          <path id="패스_14" data-name="패스 14" d="M311.183,0h-7.649V37.257h7.649V12.744l14.889,24.514h7.648l-8.474-14.093Z" transform="translate(-185.521 0)" fill="#194893"/>
        </g>
      </g>
    </g>
  </g>
</svg>
