<svg xmlns="http://www.w3.org/2000/svg" width="144" height="144" viewBox="0 0 144 144">
    <defs>
        <clipPath id="8wjxq7qeva">
            <path data-name="사각형 43413" style="fill:#fff" d="M0 0h65.664v100.866H0z"/>
        </clipPath>
    </defs>
    <g transform="translate(-142 -58)">
        <circle data-name="타원 2" cx="72" cy="72" r="72" transform="translate(142 58)" style="fill:#0452d7"/>
        <text data-name="1" transform="translate(248 177)" style="font-size:66px;font-family:Roboto-Bold,Roboto;font-weight:700;fill:#fff"><tspan x="-37.866" y="0">01</tspan></text>
        <g data-name="그룹 27689" style="opacity:.5">
            <g data-name="그룹 27688" style="clip-path:url(#8wjxq7qeva)" transform="translate(152 58)">
                <path data-name="패스 20736" d="M50.413 68.9a1.973 1.973 0 0 1-.376-.036 1.94 1.94 0 0 1-1.53-2.277c1.2-6.1 3.964-12.589 7.053-16.537.275-.375 6.2-8.574 6.224-17.135A28.953 28.953 0 0 0 32.918 3.879h-.086A28.989 28.989 0 0 0 3.879 32.746C3.855 41.3 9.721 49.527 10 49.917c3.045 3.942 5.765 10.41 6.934 16.489a1.94 1.94 0 1 1-3.81.732C12.08 61.686 9.585 55.711 6.92 52.271l-.026-.035C6.61 51.854-.029 42.758 0 32.734A32.875 32.875 0 0 1 32.832 0h.1a32.833 32.833 0 0 1 32.732 32.931c-.029 10.026-6.722 19.081-7.007 19.461l-.027.035c-2.7 3.446-5.242 9.438-6.315 14.911a1.94 1.94 0 0 1-1.9 1.567" transform="translate(0 .001)" style="fill:#fff"/>
                <path data-name="패스 20737" d="M66.939 212.764h-.009l-34.39-.1a3.973 3.973 0 0 1-2.68-1.034 3.656 3.656 0 0 1-1.2-2.65l-.712-22.385v-.066a3.809 3.809 0 0 1 3.888-3.7l35.964.107a3.973 3.973 0 0 1 2.68 1.033 3.648 3.648 0 0 1 1.2 2.69v.068l-.849 22.373a3.819 3.819 0 0 1-3.893 3.661m-34.4-3.984h.015l34.389.1h.019l.834-22.073-35.95-.107h-.005z" transform="translate(-17.104 -111.898)" style="fill:#fff"/>
                <path data-name="패스 20738" d="M78.587 72.129a3.916 3.916 0 1 1-3.928 3.9 3.955 3.955 0 0 1 3.928-3.9m3.118-5.613a3.108 3.108 0 0 1-6.2-.019l-.764-16.83a3.924 3.924 0 0 1 7.832.024z" transform="translate(-45.695 -28.152)" style="fill:#fff"/>
            </g>
        </g>
    </g>
</svg>
