<svg xmlns="http://www.w3.org/2000/svg" width="144" height="144" viewBox="0 0 144 144">
    <defs>
        <clipPath id="i02103emha">
            <path data-name="사각형 43443" transform="translate(1316 1031)" style="stroke:#707070;fill:#fff" d="M0 0h101v101H0z"/>
        </clipPath>
        <clipPath id="bgjgyab84b">
            <path data-name="사각형 43442" style="fill:#fff" d="M0 0h103.445v92.505H0z"/>
        </clipPath>
    </defs>
    <g transform="translate(-1316 -1026)">
        <circle data-name="타원 2" cx="72" cy="72" r="72" transform="translate(1316 1026)" style="fill:#0452d7"/>
        <text data-name="3" transform="translate(1417 1140)" style="font-size:66px;font-family:Roboto-Bold,Roboto;font-weight:700;fill:#fff"><tspan x="-37.866" y="0">03</tspan></text>
        <g data-name="마스크 그룹 6" style="clip-path:url(#i02103emha)">
            <g data-name="그룹 27695" style="opacity:.5">
                <g data-name="그룹 27694" style="clip-path:url(#bgjgyab84b)" transform="translate(1306 1030.748)">
                    <path data-name="패스 20747" d="M80.053 65.882a1.989 1.989 0 0 1-1.853-2.724 147.549 147.549 0 0 1 17.862-30.97 97.161 97.161 0 0 1 21.9-21.663C127.675 3.823 137.918.282 148.409 0A1.989 1.989 0 0 1 150 3.253c-.046.056-4.71 5.711-12 13.285a1.989 1.989 0 1 1-2.866-2.76c3.66-3.8 6.64-7.1 8.689-9.432C124.06 6.917 108.836 21.892 99.3 34.513a146.323 146.323 0 0 0-17.4 30.116 1.99 1.99 0 0 1-1.849 1.254" transform="translate(-47.006)" style="fill:#fff"/>
                    <path data-name="패스 20748" d="M93.749 100.145A1.99 1.99 0 0 1 93 96.312c9.991-4.057 21.32-11.569 33.672-22.326a1.989 1.989 0 1 1 2.613 3C116.6 88.033 104.9 95.775 94.5 100a1.985 1.985 0 0 1-.748.147" transform="translate(-55.253 -44.257)" style="fill:#fff"/>
                    <path data-name="패스 20749" d="M189.474 46.405a1.989 1.989 0 0 1-.185-3.97c.829-.078 8.18-.756 10.994-.428a1.989 1.989 0 1 1-.46 3.952 79.32 79.32 0 0 0-10.159.438 2.03 2.03 0 0 1-.19.009" transform="translate(-112.896 -25.241)" style="fill:#fff"/>
                    <path data-name="패스 20750" d="M171.394 64.1a1.989 1.989 0 0 1-.185-3.97c.829-.078 8.179-.755 10.994-.427a1.989 1.989 0 1 1-.461 3.952 79.41 79.41 0 0 0-10.159.436 2.024 2.024 0 0 1-.189.009" transform="translate(-102.009 -35.895)" style="fill:#fff"/>
                    <path data-name="패스 20751" d="M43.132 119.79a4.379 4.379 0 0 1-2.559-.737C19.974 104.442 6.772 88.78.215 71.173c-.782-2.1.691-4.282 2.5-5.1C24.01 56.466 29.5 53.689 39.277 46.1a2.915 2.915 0 0 1 2.875-.643 2.707 2.707 0 0 1 1.7 2.1 11.6 11.6 0 0 0 2.482 4.2A25.974 25.974 0 0 1 48.5 54.83a1.989 1.989 0 0 1-3.451 1.98 22.645 22.645 0 0 0-1.849-2.595 19.412 19.412 0 0 1-2.663-4.066C31.134 57.33 25.15 60.316 4.355 69.7a.867.867 0 0 0-.335.291c6.293 16.74 18.992 31.721 38.816 45.789a2.8 2.8 0 0 0 1.786-.4C60.255 105.241 72.71 96.758 78.166 88.2a87.267 87.267 0 0 1-9.47-6.681c-1.819-1.4-3.7-2.849-5.458-4.09a1.989 1.989 0 1 1 2.295-3.25c1.824 1.288 3.739 2.762 5.591 4.187a84.6 84.6 0 0 0 9.008 6.374 4.367 4.367 0 0 1 2.2 2.553 2.808 2.808 0 0 1-.28 2.176c-5.645 9.583-18.18 18.168-35.272 29.248a7.008 7.008 0 0 1-3.649 1.072" transform="translate(0 -27.285)" style="fill:#fff"/>
                </g>
            </g>
        </g>
    </g>
</svg>
