<svg xmlns="http://www.w3.org/2000/svg" width="48" height="48" viewBox="0 0 48 48">
  <g id="sns-icon-blog" transform="translate(-1641 -332)">
    <circle id="타원_24" data-name="타원 24" cx="24" cy="24" r="24" transform="translate(1641 332)" fill="#fff"/>
    <path id="패스_20733" data-name="패스 20733" d="M-15.023,0V-11.375h3.9a4.76,4.76,0,0,1,2.938.773A2.724,2.724,0,0,1-7.18-8.3,2.456,2.456,0,0,1-7.6-6.891a2.715,2.715,0,0,1-1.234.969A2.511,2.511,0,0,1-7.41-4.98a2.742,2.742,0,0,1,.5,1.66A3.028,3.028,0,0,1-7.934-.859,4.467,4.467,0,0,1-10.875,0Zm1.977-5.133v3.555h2.2A2.124,2.124,0,0,0-9.4-2.039,1.618,1.618,0,0,0-8.875-3.32a1.623,1.623,0,0,0-1.812-1.812Zm0-1.453h1.938A2.241,2.241,0,0,0-9.668-7a1.432,1.432,0,0,0,.52-1.184,1.452,1.452,0,0,0-.48-1.219,2.426,2.426,0,0,0-1.5-.375h-1.922ZM-3.094,0h-1.9V-12h1.9Zm1.711-4.3A4.984,4.984,0,0,1-.891-6.543,3.6,3.6,0,0,1,.492-8.074a3.9,3.9,0,0,1,2.047-.535,3.692,3.692,0,0,1,2.777,1.1A4.333,4.333,0,0,1,6.469-4.586l.008.445A5.029,5.029,0,0,1,6-1.906,3.551,3.551,0,0,1,4.621-.383,3.925,3.925,0,0,1,2.555.156,3.667,3.667,0,0,1-.309-1.035,4.563,4.563,0,0,1-1.383-4.211Zm1.9.164A3.406,3.406,0,0,0,1.055-2.1a1.752,1.752,0,0,0,1.5.738,1.733,1.733,0,0,0,1.5-.75,3.762,3.762,0,0,0,.535-2.2,3.362,3.362,0,0,0-.551-2.031,1.759,1.759,0,0,0-1.5-.75,1.743,1.743,0,0,0-1.477.738A3.691,3.691,0,0,0,.516-4.141ZM7.75-4.289a4.944,4.944,0,0,1,.926-3.145,2.971,2.971,0,0,1,2.457-1.176A2.784,2.784,0,0,1,13.406-7.6l.086-.852H15.2v8.2a3.406,3.406,0,0,1-1.035,2.625,3.943,3.943,0,0,1-2.793.961,4.5,4.5,0,0,1-1.816-.387A3.227,3.227,0,0,1,8.211,1.93l.9-1.141a2.713,2.713,0,0,0,2.156,1.039,2.1,2.1,0,0,0,1.492-.512,1.961,1.961,0,0,0,.547-1.5v-.57a2.8,2.8,0,0,1-2.187.914,2.964,2.964,0,0,1-2.426-1.18A5.1,5.1,0,0,1,7.75-4.289Zm1.891.164a3.4,3.4,0,0,0,.52,2,1.671,1.671,0,0,0,1.441.73,1.827,1.827,0,0,0,1.7-.984V-6.094a1.8,1.8,0,0,0-1.687-.961,1.677,1.677,0,0,0-1.457.742A3.811,3.811,0,0,0,9.641-4.125Z" transform="translate(1665 362)" fill="#444"/>
  </g>
</svg>
