<svg xmlns="http://www.w3.org/2000/svg" width="48" height="48" viewBox="0 0 48 48">
  <g id="sns-icon-utb" transform="translate(-1641 -236)">
    <circle id="타원_17" data-name="타원 17" cx="24" cy="24" r="24" transform="translate(1641 236)" fill="#fff"/>
    <path id="패스_20734" data-name="패스 20734" d="M16.289-10.008a.705.705,0,0,0-.082-.34.621.621,0,0,0-.246-.246L10.242-14.18a.686.686,0,0,0-.363-.117.81.81,0,0,0-.363.094.849.849,0,0,0-.281.27.68.68,0,0,0-.094.363v7.148a.68.68,0,0,0,.094.363.672.672,0,0,0,.281.246,1.029,1.029,0,0,0,.176.07.637.637,0,0,0,.176.023.771.771,0,0,0,.188-.023.528.528,0,0,0,.188-.094L15.961-9.4a.621.621,0,0,0,.246-.246A.756.756,0,0,0,16.289-10.008Zm5.719,0q0,.539-.012.961t-.012.727q0,.3-.023.68t-.07.844q-.047.445-.105.867a6.459,6.459,0,0,1-.152.773,2.332,2.332,0,0,1-.27.75,2.94,2.94,0,0,1-.48.633,2.933,2.933,0,0,1-.656.422,2.418,2.418,0,0,1-.727.211Q18.258-3,16.383-2.93T12-2.859q-2.508,0-4.383-.07T4.5-3.141a2.418,2.418,0,0,1-.727-.211,2.933,2.933,0,0,1-.656-.422,2.385,2.385,0,0,1-.492-.633,3.09,3.09,0,0,1-.281-.75q-.07-.352-.129-.773T2.109-6.8q-.047-.469-.07-.844t-.023-.68q0-.3-.012-.727t-.012-.961q0-.539.012-.949t.012-.715q0-.3.023-.68t.07-.844q.047-.469.105-.879a6.563,6.563,0,0,1,.152-.762,2.21,2.21,0,0,1,.27-.762,3.073,3.073,0,0,1,.48-.621,2.565,2.565,0,0,1,.656-.445,2.418,2.418,0,0,1,.727-.211q1.242-.117,3.117-.187T12-17.133q2.508,0,4.383.07t3.117.188a2.418,2.418,0,0,1,.727.211,2.565,2.565,0,0,1,.656.445,2.464,2.464,0,0,1,.492.621,2.846,2.846,0,0,1,.281.762q.07.352.129.762t.105.879q.047.469.07.844t.023.68q0,.3.012.715T22.008-10.008Z" transform="translate(1653 270)" fill="#444"/>
  </g>
</svg>
